<?xml version="1.0" encoding="utf-8"?>
<!-- Generator: Adobe Illustrator 23.0.1, SVG Export Plug-In . SVG Version: 6.00 Build 0)  -->
<svg version="1.1" xmlns="http://www.w3.org/2000/svg" xmlns:xlink="http://www.w3.org/1999/xlink" x="0px" y="0px"
	 viewBox="0 0 137 60" enable-background="new 0 0 137 60" xml:space="preserve">
<g id="Layer_1" display="none">
	<g display="inline" opacity="0.25">
		<path fill="#FF0000" d="M18.5,18.9l13.9,13.3l-15,16.2c0,0,22.2,9.6,28.7-13.1S17.4,11.4,18.5,18.9z"/>
	</g>
	<ellipse display="inline" fill="#FFFFFF" cx="18.8" cy="32.2" rx="10.1" ry="13.3"/>
	<g display="inline">
		<path fill="#FF0000" d="M34.2,33.5L18.9,48.9c-0.7,0.7-2,0.7-2.7,0h0c-0.7-0.7-0.7-2,0-2.7l15.3-15.3c0.7-0.7,2-0.7,2.7,0l0,0
			C35,31.6,35,32.8,34.2,33.5z"/>
	</g>
	<g display="inline">
		<path fill="#FF0000" d="M27.5,16C36.6,16,44,23.4,44,32.5S36.6,49,27.5,49S11,41.6,11,32.5S18.4,16,27.5,16 M27.5,12
			C16.2,12,7,21.2,7,32.5S16.2,53,27.5,53S48,43.8,48,32.5S38.8,12,27.5,12L27.5,12z"/>
	</g>
	<g display="inline">
		<path fill="#FF0000" d="M31.5,33.3L17.2,19c-0.7-0.7-0.7-2,0-2.7l0,0c0.7-0.7,2-0.7,2.7,0l14.3,14.3c0.7,0.7,0.7,2,0,2.7h0
			C33.5,34,32.2,34,31.5,33.3z"/>
	</g>
	<g display="inline">
		<path fill="#FF0000" d="M32.4,34.2H12.1c-1.1,0-1.9-0.9-1.9-1.9v0c0-1.1,0.9-1.9,1.9-1.9h20.2c1.1,0,1.9,0.9,1.9,1.9v0
			C34.3,33.3,33.4,34.2,32.4,34.2z"/>
	</g>
</g>
<g id="Layer_2">
	<g>
		<path fill="#FF0043" d="M73.5,25.3c0,0.5-0.1,0.9-0.3,1.3c-1.5,3-3.6,6.2-6.3,9.6c-0.4,0.5-0.6,0.9-0.6,1.3c0,0.6,0,1.6,0.1,2.8
			s0.1,2.2,0.1,2.8c0,0.2,0,0.3-0.1,0.4c0,0-0.2,0-0.5,0.1c-0.4,0.1-1.5,0.1-3.2,0.1c-1.7,0-2.8,0-3.3-0.1c-0.3,0-0.5-0.2-0.5-0.5
			c0-0.6,0.1-1.6,0.2-2.8s0.2-2.2,0.2-2.9c0-0.4-0.1-0.8-0.4-1.2c-1.4-2-3.4-5.1-6.1-9.2c-0.3-0.5-0.4-0.8-0.4-1.1
			c0-0.7,0-1.8-0.1-3.2s-0.1-2.5-0.1-3.2c0-0.4,0.1-0.6,0.4-0.6c0.7,0,1.8,0,3.3,0.1s2.5,0.1,3.3,0.1c0.3,0,0.4,0.1,0.4,0.3
			c0,0.6,0,1.5-0.1,2.7s-0.1,2.1-0.1,2.7c0,0.4,0.5,1.2,1.5,2.6c0.8,1.1,1.5,2,2,2.5c0.5-0.6,1.1-1.4,1.9-2.5c1-1.4,1.5-2.3,1.5-2.5
			c0-0.6,0-1.5-0.1-2.7s-0.1-2.1-0.1-2.7c0-0.2,0.1-0.4,0.2-0.4h0.4c0.7,0,1.8,0,3.2-0.1s2.5-0.1,3.2-0.1c0.2,0,0.4,0.3,0.4,0.8
			c0,0.6,0,1.6,0,2.8S73.5,24.7,73.5,25.3z"/>
		<path fill="#FF0043" d="M100.1,43.1c0,0.2-0.1,0.4-0.4,0.4c-0.4,0.1-1.4,0.1-3.3,0.1c-1.7,0-2.8,0-3.2-0.1
			c-0.4-0.1-0.7-0.3-0.8-0.8c-0.4-1.7-0.7-2.6-0.9-2.7C91.3,40,89.7,40,86.8,40c-2,0-3.1,0.1-3.2,0.2c-0.2,0.2-0.4,0.8-0.7,1.9
			c-0.2,1-0.5,1.5-0.8,1.6c-0.4,0.1-1.7,0.1-4,0.1c-1.8,0-2.7-0.2-2.7-0.5c0-0.3,1.3-4,4-11.2c2.9-7.8,4.4-12,4.7-12.8
			c0.1-0.4,0.3-0.7,0.5-0.7c0.3,0,0.8,0,1.5,0.1s1.2,0.1,1.5,0.1c0.3,0,0.8,0,1.4-0.1s1.1-0.1,1.4-0.1c0.2,0,0.4,0.2,0.6,0.6
			c0.6,1.2,2.3,5.4,5,12.7C98.7,39,100.1,42.8,100.1,43.1z M87.7,27.1c-0.2,0.5-0.7,1.6-1.2,3.4c-0.6,1.8-0.9,2.9-0.9,3.2
			c0,0.2,0.4,0.3,1.1,0.4c0.4,0,1,0,1.8,0c0.8,0,1.2-0.1,1.3-0.3c0-0.1,0-0.1,0-0.2c0-0.4-0.3-1.5-0.8-3.2
			C88.3,28.7,87.9,27.6,87.7,27.1z"/>
		<path fill="#FF0043" d="M124.8,42.6c0,0.5-0.2,0.8-0.7,1c-0.4,0.1-1.3,0.2-2.8,0.2c-1.4,0-2.5-0.1-3.2-0.2
			c-0.3-0.1-0.5-0.1-0.6-0.2s-0.2-0.2-0.4-0.5c-0.9-1.6-1.7-3.1-2.5-4.7c-1.4-2.5-2.2-3.9-2.5-4.2c-1.3,0.5-1.9,0.8-1.9,1
			c0,0.9,0,2.2,0.1,4s0.1,3.1,0.1,4c0,0.4-0.2,0.6-0.5,0.6c-0.6,0.1-1.7,0.1-3.3,0.1c-1.5,0-2.5,0-3-0.1c-0.3-0.1-0.5-0.3-0.5-0.5
			c0-1.3,0.1-3.2,0.2-5.7s0.2-4.5,0.2-5.7c0-1.4-0.1-3.4-0.2-6.1s-0.2-4.8-0.2-6.1c0-0.3,0.1-0.4,0.4-0.4c0.4,0,0.9,0,1.6,0.1
			s1.3,0.1,1.6,0.1c0.4,0,0.9,0,1.7-0.1s1.3-0.1,1.7-0.1c0.2,0,0.3,0.1,0.3,0.3c0,0.9,0,2.2-0.1,3.9s-0.1,3.1-0.1,3.9
			c0,1,0.3,1.5,0.8,1.5c1.4,0,2.5-0.4,3.3-1.1c0.6-0.6,1.2-1.6,1.7-3.1c0.4-1.1,1-2.8,1.8-5c0.1-0.3,0.4-0.4,0.8-0.4
			c0.3,0,0.8,0,1.4,0.1s1.1,0.1,1.4,0.1c0.3,0,0.8,0,1.4,0s1.1,0,1.4,0c0.3,0,0.4,0.1,0.4,0.4c0,0.4-0.2,1.3-0.7,2.8
			c-1.5,4.4-3.1,7.2-5,8.3c-0.4,0.2-0.6,0.4-0.6,0.5c0,0,1.1,1.7,3.2,5.3S124.8,41.9,124.8,42.6z"/>
	</g>
</g>
<g id="Layer_3" display="none">
	<path display="inline" fill="#262626" d="M24,47.8c-0.5,0-0.8-0.3-0.9-0.8l-0.9-5.5c-0.1-0.5,0.3-1,0.8-1.1c0.5-0.1,1,0.3,1.1,0.8
		l0.9,5.5c0.1,0.5-0.2,1-0.7,1.1c0,0,0,0,0,0H24z"/>
	<path display="inline" fill="#262626" d="M33.2,47.8H33c-0.5-0.1-0.8-0.5-0.8-1c0,0,0,0,0,0l0.9-5.5c0.1-0.5,0.6-0.8,1.1-0.8
		c0.5,0.1,0.8,0.6,0.8,1.1l-0.9,5.5C34,47.5,33.6,47.9,33.2,47.8z"/>
	<path display="inline" fill="#111111" d="M33.3,45.2h-9.3c-0.5,0-0.9,0.3-0.9,0.6v2.6c0,1.4,1.7,2.6,3.7,2.6h3.7
		c2.1,0,3.7-1.1,3.7-2.6v-2.6C34.2,45.5,33.8,45.2,33.3,45.2z"/>
	<g id="Line" display="inline">
		<path fill="#F0AB00" d="M30.6,14.6c-0.1-0.5-0.6-0.8-1-0.7c-5.9,0-11.3,3.1-13.6,7.8c-2.1,4.4-2.7,12.2,6.5,23.9
			c0.2,0.2,0.5,0.4,0.8,0.4h4.1c0.6,0,1-0.5,1-1c0-0.2-0.1-0.4-0.1-0.5c-0.1-0.2-11.7-20,1.7-28.6C30.6,15.6,30.8,15.1,30.6,14.6
			L30.6,14.6z"/>
		<path fill="#CC0000" d="M41.2,21.7c-2.3-4.7-7.6-7.8-13.6-7.8c-0.6,0-1,0.5-1,1c0,0.4,0.2,0.7,0.5,0.9c13.5,8.7,1.9,28.4,1.7,28.6
			c-0.3,0.5-0.1,1.1,0.4,1.4c0.2,0.1,0.3,0.1,0.5,0.1h4.1c0.3,0,0.6-0.1,0.8-0.4C43.9,33.8,43.3,26.1,41.2,21.7L41.2,21.7z"/>
	</g>
</g>
<g id="Layer_4">
	<ellipse fill="#FFFFFF" cx="26.5" cy="27" rx="5.5" ry="15"/>
	<path fill="#262626" d="M22,43.8c-0.5,0-0.8-0.3-0.9-0.8l-0.9-5.5c-0.1-0.5,0.3-1,0.8-1.1c0.5-0.1,1,0.3,1.1,0.8l0.9,5.5
		c0.1,0.5-0.2,1-0.7,1.1c0,0,0,0,0,0H22z"/>
	<path fill="#262626" d="M31.2,43.8H31c-0.5-0.1-0.8-0.5-0.8-1c0,0,0,0,0,0l0.9-5.5c0.1-0.5,0.6-0.8,1.1-0.8
		c0.5,0.1,0.8,0.6,0.8,1.1l-0.9,5.5C32,43.5,31.6,43.9,31.2,43.8z"/>
	<path fill="#470B2B" d="M31.3,41.2h-9.3c-0.5,0-0.9,0.3-0.9,0.6v2.6c0,1.4,1.7,2.6,3.7,2.6h3.7c2.1,0,3.7-1.1,3.7-2.6v-2.6
		C32.2,41.5,31.8,41.2,31.3,41.2z"/>
	<g id="Line_2_">
		<path fill="#F0AB00" d="M28.6,10.6c-0.1-0.5-0.6-0.8-1-0.7c-5.9,0-11.3,3.1-13.6,7.8c-2.1,4.4-2.7,12.2,6.5,23.9
			c0.2,0.2,0.5,0.4,0.8,0.4h4.1c0.6,0,1-0.5,1-1c0-0.2-0.1-0.4-0.1-0.5c-0.1-0.2-11.7-20,1.7-28.6C28.6,11.6,28.8,11.1,28.6,10.6
			L28.6,10.6z"/>
		<path fill="#FF0043" d="M39.2,17.7c-2.3-4.7-7.6-7.8-13.6-7.8c-0.6,0-1,0.5-1,1c0,0.4,0.2,0.7,0.5,0.9c13.5,8.7,1.9,28.4,1.7,28.6
			c-0.3,0.5-0.1,1.1,0.4,1.4c0.2,0.1,0.3,0.1,0.5,0.1h4.1c0.3,0,0.6-0.1,0.8-0.4C41.9,29.8,41.3,22.1,39.2,17.7L39.2,17.7z"/>
	</g>
	<path fill="#FF0043" d="M28.4,10.1"/>
	<path display="none" fill="#FF0043" d="M27,10c0,0,17,5,4,32s15-8,15-8l1-33L36-1L23,5v4C23,9,24,10,27,10z"/>
	<g>
	</g>
	<g>
	</g>
	<g>
	</g>
	<g>
	</g>
	<g>
	</g>
	<g>
	</g>
	<g>
	</g>
	<g>
	</g>
	<g>
	</g>
	<g>
	</g>
	<g>
	</g>
	<g>
	</g>
	<g>
	</g>
	<g>
	</g>
	<g>
	</g>
</g>
</svg>
