<?xml version="1.0" encoding="utf-8"?>
<!-- Generator: Adobe Illustrator 23.0.1, SVG Export Plug-In . SVG Version: 6.00 Build 0)  -->
<svg version="1.1" id="Layer_1" xmlns="http://www.w3.org/2000/svg" xmlns:xlink="http://www.w3.org/1999/xlink" x="0px" y="0px"
	 viewBox="0 0 78 82" enable-background="new 0 0 78 82" xml:space="preserve">
<rect x="-44" y="-14" fill="#FCFCFC" width="157" height="144"/>
<g opacity="0.25">
	<path fill="#F53100" d="M33.3,20.4l8.8,8.4l-9.5,10.3c0,0,14.1,6.1,18.2-8.3S32.6,15.6,33.3,20.4z"/>
</g>
<ellipse fill="#FFFFFF" cx="33.5" cy="28.8" rx="6.4" ry="8.4"/>
<g>
	<path fill="#FF0043" d="M43.3,29.7l-9.7,9.7c-0.5,0.5-1.2,0.5-1.7,0l0,0c-0.5-0.5-0.5-1.2,0-1.7l9.7-9.7c0.5-0.5,1.2-0.5,1.7,0l0,0
		C43.7,28.4,43.7,29.2,43.3,29.7z"/>
</g>
<g>
	<path fill="#FF0043" d="M39,19c5.5,0,10,4.5,10,10s-4.5,10-10,10s-10-4.5-10-10S33.5,19,39,19 M39,16c-7.2,0-13,5.8-13,13
		s5.8,13,13,13s13-5.8,13-13S46.2,16,39,16L39,16z"/>
</g>
<g>
	<path fill="#FF0043" d="M41.5,29.5l-9.1-9.1c-0.5-0.5-0.5-1.2,0-1.7v0c0.5-0.5,1.2-0.5,1.7,0l9.1,9.1c0.5,0.5,0.5,1.2,0,1.7h0
		C42.8,30,42,30,41.5,29.5z"/>
</g>
<g>
	<path fill="#FF0043" d="M42.1,30.1H29.2c-0.7,0-1.2-0.5-1.2-1.2v0c0-0.7,0.5-1.2,1.2-1.2h12.8c0.7,0,1.2,0.5,1.2,1.2v0
		C43.3,29.5,42.7,30.1,42.1,30.1z"/>
</g>
<g>
	<path fill="#FF0043" d="M29,50.3c0,0.3-0.1,0.6-0.2,0.9c-1.1,2.1-2.5,4.3-4.3,6.6c-0.3,0.3-0.4,0.6-0.4,0.9c0,0.4,0,1.1,0.1,1.9
		c0,0.9,0.1,1.5,0.1,1.9c0,0.1,0,0.2-0.1,0.3c0,0-0.1,0-0.3,0.1c-0.3,0-1,0.1-2.2,0.1c-1.2,0-1.9,0-2.2-0.1c-0.2,0-0.3-0.1-0.3-0.4
		c0-0.4,0-1.1,0.1-2s0.1-1.5,0.1-2c0-0.3-0.1-0.5-0.3-0.8c-1-1.4-2.4-3.5-4.2-6.3c-0.2-0.3-0.3-0.6-0.3-0.8c0-0.5,0-1.2-0.1-2.2
		s-0.1-1.7-0.1-2.2c0-0.3,0.1-0.4,0.2-0.4c0.5,0,1.2,0,2.2,0.1c1,0,1.8,0.1,2.3,0.1c0.2,0,0.3,0.1,0.3,0.2c0,0.4,0,1-0.1,1.9
		c0,0.8-0.1,1.4-0.1,1.9c0,0.2,0.4,0.8,1.1,1.8c0.6,0.8,1,1.3,1.4,1.8c0.3-0.4,0.8-1,1.3-1.7c0.7-1,1-1.6,1-1.8c0-0.4,0-1-0.1-1.8
		c-0.1-0.8-0.1-1.4-0.1-1.8c0-0.2,0-0.3,0.1-0.3h0.3c0.5,0,1.2,0,2.2-0.1c1,0,1.7-0.1,2.2-0.1c0.2,0,0.2,0.2,0.2,0.5
		c0,0.4,0,1.1,0,1.9S29,49.9,29,50.3z"/>
	<path fill="#FF0043" d="M47.3,62.6c0,0.1-0.1,0.2-0.3,0.3c-0.2,0.1-1,0.1-2.3,0.1c-1.2,0-1.9,0-2.2-0.1c-0.3-0.1-0.4-0.2-0.5-0.5
		c-0.3-1.2-0.5-1.8-0.6-1.9c-0.1-0.1-1.2-0.1-3.2-0.1c-1.4,0-2.1,0-2.2,0.1c-0.1,0.1-0.3,0.6-0.5,1.3c-0.2,0.7-0.3,1-0.6,1.1
		c-0.3,0.1-1.2,0.1-2.8,0.1c-1.2,0-1.9-0.1-1.9-0.4c0-0.2,0.9-2.8,2.7-7.7c2-5.3,3-8.3,3.2-8.8c0.1-0.3,0.2-0.5,0.3-0.5
		c0.2,0,0.6,0,1,0.1c0.5,0,0.8,0.1,1,0.1c0.2,0,0.5,0,1,0s0.7,0,1,0c0.2,0,0.3,0.1,0.4,0.4c0.4,0.8,1.5,3.8,3.5,8.7
		C46.4,59.8,47.3,62.4,47.3,62.6z M38.8,51.6c-0.2,0.4-0.5,1.1-0.9,2.3c-0.4,1.3-0.7,2-0.7,2.2c0,0.1,0.2,0.2,0.7,0.2
		c0.3,0,0.7,0,1.2,0c0.5,0,0.8-0.1,0.9-0.2c0,0,0-0.1,0-0.2c0-0.3-0.2-1-0.6-2.2C39.2,52.6,38.9,51.9,38.8,51.6z"/>
	<path fill="#FF0043" d="M64.3,62.2c0,0.3-0.1,0.6-0.4,0.7C63.6,63,63,63,62,63c-1,0-1.7,0-2.2-0.1c-0.2,0-0.4-0.1-0.4-0.1
		c-0.1,0-0.2-0.2-0.3-0.3c-0.6-1.1-1.2-2.2-1.8-3.2c-1-1.7-1.5-2.7-1.7-2.9c-0.9,0.3-1.3,0.5-1.3,0.7c0,0.6,0,1.5,0.1,2.7
		c0,1.2,0.1,2.1,0.1,2.8c0,0.3-0.1,0.4-0.3,0.4C53.7,62.9,53,63,51.9,63c-1,0-1.7,0-2.1-0.1c-0.2,0-0.4-0.2-0.4-0.4
		c0-0.9,0-2.2,0.1-3.9c0.1-1.8,0.1-3.1,0.1-4c0-0.9,0-2.3-0.1-4.2s-0.1-3.3-0.1-4.2c0-0.2,0.1-0.3,0.3-0.3c0.3,0,0.6,0,1.1,0
		c0.5,0,0.9,0,1.1,0c0.3,0,0.6,0,1.1,0c0.5,0,0.9,0,1.1,0c0.1,0,0.2,0.1,0.2,0.2c0,0.6,0,1.5-0.1,2.7c-0.1,1.2-0.1,2.1-0.1,2.7
		c0,0.7,0.2,1,0.6,1c1,0,1.7-0.3,2.2-0.8c0.4-0.4,0.8-1.1,1.2-2.1c0.3-0.8,0.7-1.9,1.3-3.5c0.1-0.2,0.3-0.3,0.5-0.3c0.2,0,0.5,0,1,0
		c0.4,0,0.7,0,1,0c0.2,0,0.5,0,1,0s0.8,0,1,0c0.2,0,0.3,0.1,0.3,0.3c0,0.3-0.2,0.9-0.5,1.9c-1,3-2.2,5-3.4,5.7
		c-0.3,0.2-0.4,0.3-0.4,0.4c0,0,0.7,1.2,2.2,3.6C63.6,60.3,64.3,61.7,64.3,62.2z"/>
</g>
<g>
</g>
<g>
</g>
<g>
</g>
<g>
</g>
<g>
</g>
<g>
</g>
<g>
</g>
<g>
</g>
<g>
</g>
<g>
</g>
<g>
</g>
<g>
</g>
<g>
</g>
<g>
</g>
<g>
</g>
</svg>
